<svg xmlns="http://www.w3.org/2000/svg" viewBox="0 0 1281 1025">
    <g id="background"><rect width="1280" height="1025" rx="12" fill="#e8d461"/><polygon
        points="193.5 792.5 4.5 1024.5 1280.5 1024.5 1280.5 792.5 193.5 792.5"
        fill="#b0f0e0"
        stroke="#050505"
        stroke-miterlimit="10"/><path
        d="M101.25,913.64,112,962.17a11.27,11.27,0,0,0,11,8.83h34.37a11.28,11.28,0,0,0,11.13-9.45L176,916.31a11.29,11.29,0,0,0-10.43-13.09L113,899.94A11.28,11.28,0,0,0,101.25,913.64Z"
        transform="translate(0.5 0.5)"
        fill="#ecca8d"/><ellipse cx="139.5" cy="907.5" rx="39" ry="10" fill="#7a5f35"/><path
        d="M116.2,903.5S127,879,116,865s5-40,5-40,17-31,7-33"
        transform="translate(0.5 0.5)"
        fill="none"
        stroke="#8cbd25"
        stroke-miterlimit="10"
        stroke-width="5"/><path
        d="M150.54,902.37S141,862,162,860s0-30,0-37,9-18,9-18"
        transform="translate(0.5 0.5)"
        fill="none"
        stroke="#8cbd25"
        stroke-miterlimit="10"
        stroke-width="5"/><ellipse cx="130" cy="772" rx="7.5" ry="28.5" fill="#df805c"/><ellipse cx="194" cy="855" rx="22.5" ry="5.5" fill="#df805c"/><ellipse cx="139" cy="849.5" rx="25.5" ry="6" fill="#df805c"/><ellipse cx="171.5" cy="794" rx="6" ry="19.5" fill="#df805c"/><ellipse cx="105.5" cy="821.5" rx="15" ry="8" fill="#df805c"/><polygon
        points="99.31 151.44 83.21 132.03 58.09 134.29 71.58 112.98 61.66 89.8 86.09 96.03 105.08 79.44 106.7 104.6 128.35 117.54 104.92 126.85 99.31 151.44"
        fill="#b0f0e0"
        stroke="#050505"
        stroke-miterlimit="10"/>
<g id = "star" ><polygon 
        points="304.1 231.73 247.18 215.59 201.62 253.32 199.38 194.2 149.41 162.53 204.95 142.13 219.63 84.82 256.19 131.34 315.24 127.59 282.29 176.74 304.1 231.73"
        fill="#b0f0e0"
        stroke="#050505"
        stroke-miterlimit="10"/><polygon 
        points="501.39 191.44 446.71 155.52 386.13 180.19 403.4 117.1 361.21 67.1 426.56 64.03 461.07 8.46 484.19 69.65 547.7 85.3 496.64 126.2 501.39 191.44"
        fill="#b0f0e0"
        stroke="#050505"
        stroke-miterlimit="10"/><polygon
        points="112.06 373.37 82.52 362.37 56.7 380.47 58.04 348.97 32.85 330.01 63.22 321.55 73.46 291.73 90.9 318 122.42 318.53 102.83 343.23 112.06 373.37"
        fill="#b0f0e0"
        stroke="#050505"
        stroke-miterlimit="10"/><polygon 
        points="245.33 373.52 229.01 361.95 210.22 368.83 216.18 349.74 203.83 334 223.84 333.77 234.98 317.15 241.39 336.11 260.63 341.58 244.59 353.52 245.33 373.52"
        fill="#b0f0e0"
        stroke="#050505"
        stroke-miterlimit="10"/><polygon 
        points="529.37 325.46 496.37 320.67 473.72 345.14 468.08 312.27 437.81 298.29 467.31 282.77 471.26 249.66 495.14 272.93 527.85 266.45 513.1 296.35 529.37 325.46"
        fill="#b0f0e0"
        stroke="#050505"
        stroke-miterlimit="10"/><polygon 
        points="165.12 501.96 150.61 483.23 126.96 484.57 140.28 464.99 131.69 442.91 154.44 449.52 172.78 434.53 173.52 458.21 193.45 471.03 171.15 479.05 165.12 501.96"
        fill="#b0f0e0"
        stroke="#050505"
        stroke-miterlimit="10"/><polygon
        points="388.97 409.47 365.35 401.32 345.24 416.16 345.69 391.17 325.37 376.63 349.27 369.34 356.81 345.52 371.13 366 396.12 365.81 381.07 385.76 388.97 409.47"
        fill="#b0f0e0"
        stroke="#050505"
        stroke-miterlimit="10"/><polygon 
        points="192.11 677.15 132.97 664.01 88.63 705.29 82.84 644.99 29.88 615.57 85.44 591.43 97.06 531.97 137.19 577.36 197.32 570.03 166.56 622.22 192.11 677.15"
        fill="#b0f0e0"
        stroke="#050505"
        stroke-miterlimit="10"/><polygon 
        points="332.09 602.91 292.62 592.09 261.33 618.48 259.43 577.6 224.67 555.99 262.95 541.54 272.76 501.81 298.33 533.76 339.15 530.81 316.67 565 332.09 602.91"
        fill="#b0f0e0"
        stroke="#050505"
        stroke-miterlimit="10"/></g></g>
    <g id="character"><path
        id="right_leg"
        data-name="right leg"
        d="M724.91,848s22-5,16,24c0,0-10,57-16,63,0,0-12,37,9,58h26s9.5-6.5-11.5-24.5l1-26s18-14,39-62c0,0,12-53-4-61,0,0,27-14,8,87,0,0-2,31,11,36h17s-9-33,6-60c0,0,21-87-6-99,0,0,36-20,18,99,0,0-6,12,11,23,0,0,22,8,29-7,0,0-19-3-22-26l15.09-81s-14-44-33-51l-72.09,44Z"
        transform="translate(0.5 0.5)"
        fill="#11d1be"
        stroke="#020202"
        stroke-miterlimit="10"/><path
        id="left_leg"
        data-name="left leg"
        d="M558,853s-22-5-16,24c0,0,10,57,16,63,0,0,12,37-9,58H523s-9.5-6.5,11.5-24.5l-1-26s-18-14-39-62c0,0-12-53,4-61,0,0-27-14-8,87,0,0,2,31-11,36h-17s9-33-6-60c0,0-21-87,6-99,0,0-36-20-18,99,0,0,6,12-11,23,0,0-22,8-29-7,0,0,19-3,22-26l-13-88s6-24,25-31l78,31Z"
        transform="translate(0.5 0.5)"
        fill="#11d1be"
        stroke="#020202"
        stroke-miterlimit="10"/>
        <g id="head_shape" data-name="head shape"><path
            id="head"
            d="M673.5,371s-85-11-128,19c0,0-44,48-68,46,0,0-60,52-71,134v79s2,73,42,121c0,0,170,217,379,0C827.5,770,995,486.5,673.5,371Z"
            transform="translate(0.5 0.5)"
            fill="#11d1be"
            stroke="#020202"
            stroke-miterlimit="10"/><path
            d="M671.5,371s140,61,156,186c0,0,42.2,174.18-92.9,282.63-3.52,2.83,0,8.35,4,6.31C776,827.05,841.13,778.71,873.5,663,873.5,663,908.5,421,671.5,371Z"
            transform="translate(0.5 0.5)"
            fill="#04af9a"/></g>
        <g id="eyes">
            <g id="leftEye"><ellipse cx="483.5" cy="588" rx="23" ry="31.5" fill="#080300"/><path
                id="lPupil"
                d="M476,565s-32,13-6,45C470,610,463,585,476,565Z"
                transform="translate(0.5 0.5)"
                fill="#f7f7f9"/></g>
            <g id="rightEye"><ellipse cx="789.5" cy="596" rx="23" ry="31.5" fill="#040017"/><path
                id="rPupil"
                d="M784,573s-32,13-6,45C778,618,771,593,784,573Z"
                transform="translate(0.5 0.5)"
                fill="#f7f7f9"/><g id="leftDeadEye">
				<path d="M475.88,572.71l4.77,6c1.24,1.56,2.28,3,3.38,4.55h.21c1.11-1.67,2.21-3.11,3.32-4.61l4.7-5.93h6.56l-11.4,13.48,11.75,14.4h-6.91l-4.91-6.28c-1.31-1.61-2.42-3.16-3.59-4.84h-.14c-1.11,1.68-2.28,3.17-3.53,4.84l-4.83,6.28h-6.71l11.89-14.23-11.33-13.65Z" transform="translate(0.5 0.5)" fill="#f9081f" />
			</g>
			<g id="rightDeadEye">
				<path d="M784.16,580.8l4.77,6c1.25,1.56,2.28,3,3.39,4.56h.21c1.1-1.68,2.21-3.12,3.31-4.61l4.7-5.94h6.57l-11.4,13.48,11.74,14.41h-6.91l-4.9-6.28c-1.32-1.62-2.42-3.17-3.6-4.84h-.14c-1.1,1.67-2.28,3.17-3.52,4.84l-4.84,6.28h-6.7l11.89-14.23L777.39,580.8Z" transform="translate(0.5 0.5)" fill="#f9081f" />
			</g></g>
        </g><path
            id="neutral"
            d="M536,720s90,53,161,0"
            transform="translate(0.5 0.5)"
            fill="#040017"/><path
            id="hat"
            d="M552,383s-3,45-84,60c0,0,10.5-5.5,18.5-7.5,0,0-10-15-5-39,0,0,17-19,25-19l36,18S549.5,381.5,552,383Z"
            transform="translate(0.5 0.5)"
            fill="#d87f09"
            stroke="#070707"
            stroke-miterlimit="10"/></g>
    <g id="window"><rect
        x="740"
        y="65"
        width="425"
        height="301"
        rx="12"
        fill="#e0e1fe"
        stroke="#a67c52"
        stroke-miterlimit="10"
        stroke-width="11"/><path
        id="cloud3"
        d="M754,303s-8-21,40-17c0,0,19-41,55-6,0,0,9-29,32-9,0,0,19,20,0,32Z"
        transform="translate(0.5 0.5)"
        fill="#fbfffd"/><path
        id="cloud2"
        d="M883.5,239s-9.83-25.81,49.17-20.9c0,0,23.36-50.4,67.61-7.37,0,0,11.07-35.65,39.34-11.07,0,0,23.36,24.59,0,39.34Z"
        transform="translate(0.5 0.5)"
        fill="#fbfffd"/><path
        id="cloud1"
        d="M967.39,149s-8-21,40-17c0,0,19-41,55-6,0,0,9-29,32-9,0,0,19,20,0,32Z"
        transform="translate(0.5 0.5)"
        fill="#fbfffd"/></g>
    <g id="pet">
        <g id="body"><path
            d="M940,797s36,16,69,12c0,0,4,0,12,8,0,0,37,37,186,10,0,0,39-8,51-1,0,0,0-17-16-26,0,0,29-6,30,37,0,0,5,39-20,42,0,0-1,10-25,19,0,0,2,32-5,33h-12l3-32h-10l-2,23-11,2,1-23s-84,16-126,1v25h-11l-1-21-8-2-3,32h-16l7-34s-24-1-33-33l-66-63Z"
            transform="translate(0.5 0.5)"
            fill="#f45700"
            stroke="#754c24"
            stroke-miterlimit="10"
            stroke-width="2"/></g>
        <g id="nose"><circle cx="932" cy="797" r="9.5"/></g>
        <g id="downArea"><circle
            cx="979.5"
            cy="816.5"
            r="7"
            fill="#020202"
            stroke="#fcfcfc"
            stroke-miterlimit="10"/></g>
        <g id="Layer_9" data-name="Layer 9"><circle cx="1060" cy="855" r="6.5" fill="#ecca8d"/><circle cx="1069" cy="887" r="8.5" fill="#ecca8d"/><circle cx="1101" cy="860" r="4.5" fill="#ecca8d"/><ellipse cx="1140" cy="854.5" rx="5.5" ry="6" fill="#ecca8d"/><circle cx="1112" cy="891" r="8.5" fill="#ecca8d"/><ellipse cx="1174" cy="848" rx="4.5" ry="7.5" fill="#ecca8d"/><ellipse cx="1208.5" cy="841" rx="7" ry="7.5" fill="#ecca8d"/><ellipse cx="1179" cy="881.5" rx="5.5" ry="6" fill="#ecca8d"/><circle cx="1208" cy="862" r="6.5" fill="#ecca8d"/><ellipse cx="1143" cy="888.5" rx="8.5" ry="6" fill="#ecca8d"/><ellipse cx="1025.5" cy="878" rx="9" ry="9.5" fill="#ecca8d"/><circle cx="1084" cy="851" r="6.5" fill="#ecca8d"/><ellipse cx="1160.5" cy="870" rx="9" ry="5.5" fill="#ecca8d"/><ellipse cx="1123" cy="876" rx="11.5" ry="5.5" fill="#ecca8d"/><circle cx="1082" cy="873" r="8.5" fill="#ecca8d"/></g>
    </g>
</svg>